<svg version="1.2" xmlns="http://www.w3.org/2000/svg" viewBox="0 0 272 358" width="272" height="358"><style>.a{fill:#f26223;stroke:#f26223;stroke-miterlimit:100;stroke-width:40.9}</style><path class="a" d="m23 286.9v-216.3q0-22 12.8-34.7 12.8-12.8 34.7-12.8h168.7q3.6 5.6 6.2 14.8 3.1 9.2 3.1 19.4 0 19.5-8.7 27.6-8.2 8.2-22 8.2h-107.9v47.6h115q3.6 5.6 6.2 14.8 3 8.7 3 18.9 0 19.4-8.1 27.6-8.2 8.2-22 8.2h-94.1v53.7h131.4q3.6 5.6 6.1 14.8 3.1 9.2 3.1 19.4 0 19.4-8.7 28.1-8.2 8.2-22 8.2h-149.3q-21.9 0-34.7-12.8-12.8-12.7-12.8-34.7z"/></svg>