<svg version="1.2" xmlns="http://www.w3.org/2000/svg" viewBox="0 0 402 364" width="402" height="364"><style>.a{fill:#f26223;stroke:#f26223;stroke-miterlimit:100;stroke-width:40.9}</style><path class="a" d="m242.4 259.7q-6.6 5.6-17.4 9.2-10.2 3.1-24 3.1-18.4 0-30.7-4.6-11.7-4.6-15.3-15.9-14.3-45-23.5-72.6-9.2-28.1-14.3-49.1h-2.6q-1.5 30.2-2.6 55.2-0.5 24.6-1 48.1 0 23.5-1 47.5-0.5 24.1-2 53.2-6.7 2.6-17.4 4.6-10.8 1.6-21.5 1.6-22.5 0-35.3-7.2-12.2-7.2-12.2-26.1l14.8-260.7q4.1-6.7 17.9-14.3 13.8-7.7 38.8-7.7 27.1 0 42.5 8.7 15.3 8.2 22.5 27.1 4.6 12.3 9.7 28.1 5.6 15.9 10.7 32.7 5.6 16.9 10.7 33.8 5.2 16.3 9.2 29.6h2.6q12.3-42.9 24.5-82.8 12.3-40.4 22.5-67.5 7.7-4.1 19.5-6.6 12.2-3.1 27.1-3.1 25 0 40.9 7.7 15.8 7.1 18.4 20.9 2 10.3 4.1 31.7 2.5 21 5.1 47.6 2.5 26.6 5.1 56.2 2.5 29.7 4.6 57.3 2.5 27.1 4.1 50.1 1.5 22.5 2 34.7-8.7 5.2-18.4 7.7-9.2 2.1-24 2.1-19.4 0-32.7-6.7-13.3-6.6-14.4-26.1-3-55.7-4-100.2-0.6-44.4-2.1-74.6h-2.5q-5.2 19.9-14.9 50.1-9.7 30.2-23.5 77.2z"/></svg>