<svg version="1.2" xmlns="http://www.w3.org/2000/svg" viewBox="0 0 369 373" width="369" height="373"><style>.a{fill:#f26223;stroke:#f26223;stroke-miterlimit:100;stroke-width:40.9}</style><path fill-rule="evenodd" class="a" d="m22.9 186q0-39.9 12.3-70.6 12.8-30.6 34.3-51.1 21.9-21 51.1-31.7 29.6-10.7 63.9-10.7 34.2 0 63.4 10.7 29.6 10.7 51.6 31.7 22 20.5 34.3 51.1 12.8 30.7 12.8 70.6 0 39.9-12.3 71-12.3 30.7-34.3 51.7-21.4 20.4-51.1 31.2-29.6 10.7-64.4 10.7-34.8 0-64.4-10.7-29.7-11.3-51.2-32.2-21.4-21-33.7-51.7-12.3-30.7-12.3-70zm91.5 0.5q0 46.5 19 69.5 18.9 23 50.6 23 32.2 0 51.1-23 18.9-23 18.9-69.5 0-46-18.9-69-18.4-23-50.6-23-31.7 0-51.1 23-19 22.5-19 69z"/></svg>