<svg version="1.2" xmlns="http://www.w3.org/2000/svg" viewBox="0 0 310 368" width="310" height="368"><style>.a{fill:#f26223;stroke:#f26223;stroke-miterlimit:100;stroke-width:40.9}</style><path fill-rule="evenodd" class="a" d="m138.8 240.4h-27.1v98.1q-5.6 1.6-17.9 3.1-11.7 1.5-23.5 1.5-11.7 0-20.9-1.5-8.7-2-14.9-6.6-5.6-4.6-8.7-12.8-3-8.2-3-21.5v-240.8q0-10.7 5.6-16.4 6.1-6.1 16.4-9.7 17.3-6.1 40.3-8.7 23-3 49.1-3 70.6 0 106.4 29.6 35.7 29.7 35.7 80.3 0 31.7-16.3 54.2-16.4 22.5-38.9 34.7 18.4 25.1 36.3 47.1 17.9 22 28.1 39.9-5.1 17.9-18.9 27.6-13.3 9.2-30.1 9.2-11.3 0-19.5-2.6-8.1-2.5-14.3-7.1-6.1-4.6-11.2-11.3-5.1-6.6-9.7-14.3zm-28.2-69.5h32.8q19.4 0 30.6-9.8 11.3-10.2 11.3-29.6 0-19.4-12.8-29.1-12.3-10.3-39.4-10.3-7.6 0-12.2 0.5-4.6 0.6-10.3 1.6z"/></svg>