<svg version="1.2" xmlns="http://www.w3.org/2000/svg" viewBox="0 0 290 370" width="290" height="370"><style>.a{fill:#f26223;stroke:#f26223;stroke-miterlimit:100;stroke-width:40.9}</style><path class="a" d="m144 223.3l-21.5-7.1q-22.5-7.7-40.9-15.4-18.4-8.1-31.7-19.4-13.3-11.2-21-26.6-7.1-15.8-7.1-38.3 0-43.5 33.2-69.5 33.8-26.1 94.1-26.1 22 0 40.9 3.1 18.9 3 32.2 9.7 13.8 6.1 21.5 16.3 7.6 9.7 7.6 23 0 13.3-6.1 23-6.1 9.2-14.8 15.9-11.3-7.2-30.2-12.3-18.9-5.6-41.4-5.6-23 0-33.7 6.6-10.8 6.2-10.8 15.9 0 7.7 6.7 12.8 6.6 4.6 19.9 8.7l27.1 8.7q48.1 15.3 73.6 39.3 26.1 23.5 26.1 64.4 0 43.5-34.3 70.6-34.2 26.6-100.7 26.6-23.5 0-43.9-3.6-20-4.1-35.3-11.2-14.8-7.7-23.5-18.5-8.2-11.2-8.2-25.5 0-14.8 8.7-25.1 8.7-10.7 18.9-16.3 14.3 11.2 34.8 19.4 20.9 8.2 45.5 8.2 25 0 35.2-7.7 10.3-7.7 10.3-17.9 0-10.2-8.2-15.3-8.2-5.6-23-10.8z"/></svg>